<?xml version="1.0" encoding="UTF-8" standalone="no"?>
<svg
   xmlns:dc="http://purl.org/dc/elements/1.1/"
   xmlns:cc="http://web.resource.org/cc/"
   xmlns:rdf="http://www.w3.org/1999/02/22-rdf-syntax-ns#"
   xmlns:svg="http://www.w3.org/2000/svg"
   xmlns="http://www.w3.org/2000/svg"
   xmlns:sodipodi="http://sodipodi.sourceforge.net/DTD/sodipodi-0.dtd"
   xmlns:inkscape="http://www.inkscape.org/namespaces/inkscape"
   width="382.66"
   height="440.008"
   id="svg2204"
   sodipodi:version="0.32"
   inkscape:version="0.44"
   sodipodi:docname="cybop_original.svg"
   sodipodi:docbase="/home/cybop/admin">
  <metadata
     id="metadata2295">
    <rdf:RDF>
      <cc:Work
         rdf:about="">
        <dc:format>image/svg+xml</dc:format>
        <dc:type
           rdf:resource="http://purl.org/dc/dcmitype/StillImage" />
      </cc:Work>
    </rdf:RDF>
  </metadata>
  <sodipodi:namedview
     inkscape:window-height="950"
     inkscape:window-width="1225"
     inkscape:pageshadow="2"
     inkscape:pageopacity="0.0"
     guidetolerance="10.0"
     gridtolerance="10.0"
     objecttolerance="10.0"
     borderopacity="1.0"
     bordercolor="#666666"
     pagecolor="#ffffff"
     id="base"
     inkscape:zoom="1.7181506"
     inkscape:cx="191.33"
     inkscape:cy="220.004"
     inkscape:window-x="0"
     inkscape:window-y="0"
     inkscape:current-layer="svg2204" />
  <defs
     id="defs2206">
    <marker
       id="ArrowEnd"
       viewBox="0 0 10 10"
       refX="0"
       refY="5"
       markerUnits="strokeWidth"
       markerWidth="4"
       markerHeight="3"
       orient="auto">
      <path
         d="M 0 0 L 10 5 L 0 10 z"
         id="path2209" />
    </marker>
    <marker
       id="ArrowStart"
       viewBox="0 0 10 10"
       refX="10"
       refY="5"
       markerUnits="strokeWidth"
       markerWidth="4"
       markerHeight="3"
       orient="auto">
      <path
         d="M 10 0 L 0 5 L 10 10 z"
         id="path2212" />
    </marker>
  </defs>
  <g
     id="g2214">
    <path
       style="stroke:none; fill-rule:evenodd; fill:#ffffff"
       d="M 0 440.008L 382.66 440.008L 382.66 0L 0 0L 0 440.008z"
       id="path2216" />
    <path
       style="stroke:none; fill-rule:evenodd; fill:#2582ff"
       d="M 189.562 81.231C 113.883 81.231 52.5195 142.586 52.5195 218.274C 52.5195 293.957 113.879 355.32 189.562 355.32C 265.25 355.32 326.605 293.957 326.605 218.274C 326.605 142.59 265.25 81.231 189.562 81.231zM 189.562 346.625C 118.68 346.625 61.2109 289.16 61.2109 218.274C 61.2109 147.391 118.676 89.922 189.562 89.922C 260.449 89.922 317.914 147.387 317.914 218.274C 317.914 289.16 260.453 346.625 189.562 346.625"
       id="path2218" />
    <path
       style="stroke:none; fill-rule:evenodd; fill:#adedff"
       d="M 189.426 89.985C 260.312 89.985 317.777 147.453 317.777 218.336C 317.777 289.219 260.312 346.688 189.426 346.688C 118.547 346.688 61.0781 289.223 61.0781 218.336C 61.0781 147.453 118.543 89.985 189.426 89.985"
       id="path2220" />
    <path
       style="stroke:none; fill-rule:evenodd; fill:#adedff"
       d="M 112.598 118.871L 267.672 118.871C 267.672 118.871 270.438 121.16 271.758 122.813C 273.078 124.457 274.723 126.11 274.723 126.11C 274.723 126.11 238.887 126.11 200.414 126.11C 200.199 126.11 199.879 126.289 199.77 126.11C 196.645 120.817 192.59 119.656 188.926 119.656C 185.391 119.656 181.207 121.461 178.207 126.11C 178.066 126.324 177.691 126.11 177.434 126.11C 139.059 126.11 103.883 126.11 103.883 126.11C 103.883 126.11 106.234 123.805 107.516 122.477C 108.852 121.094 112.602 118.867 112.602 118.867"
       id="path2222" />
    <path
       style="stroke:none; fill-rule:evenodd; fill:#adedff"
       d="M 82.6797 150.942C 82.6797 150.942 85.082 147.129 85.7891 146.133C 86.5 145.149 89.043 142.031 89.043 142.031L 89.043 294.149C 89.043 294.149 86.0742 289.903 85.5078 288.91C 84.9414 287.926 82.5391 284.106 82.5391 284.106L 82.6797 150.949"
       id="path2224" />
    <path
       style="stroke:none; fill-rule:evenodd; fill:#adedff"
       d="M 295.805 150.942C 295.805 150.942 293.402 147.129 292.695 146.133C 291.988 145.149 289.441 142.031 289.441 142.031L 289.441 294.149C 289.441 294.149 292.414 289.903 292.977 288.91C 293.539 287.926 295.949 284.106 295.949 284.106L 295.809 150.949"
       id="path2226" />
    <path
       style="stroke:none; fill-rule:evenodd; fill:#adedff"
       d="M 82.6797 307.453C 82.6797 307.453 84.7617 311.293 86.0742 312.602C 87.3828 313.91 89.043 315.59 89.043 315.59L 89.043 355.762L 289.777 355.762L 289.754 316.196C 289.754 316.196 291.293 314.699 292.699 313.196C 294.121 311.672 295.418 310.149 295.418 310.149L 295.527 362.426L 82.5273 362.453L 82.668 307.453"
       id="path2228" />
    <path
       style="stroke:none; fill-rule:evenodd; fill:#adedff"
       d="M 286.012 118.844L 295.602 118.844L 295.602 128.543C 295.602 128.543 292.309 124.664 291.344 123.57C 290.375 122.485 286.016 118.848 286.016 118.848"
       id="path2230" />
    <path
       style="stroke:none; fill-rule:evenodd; fill:#adedff"
       d="M 92.0156 118.844L 82.6562 118.844L 82.6562 129.684C 82.6562 129.684 85.3672 125.863 86.5977 124.387C 87.8281 122.91 92.0156 118.848 92.0156 118.848"
       id="path2232" />
    <path
       style="stroke:none; fill-rule:evenodd; fill:#469eff"
       d="M 112.598 118.871L 267.672 118.871C 267.672 118.871 270.438 121.16 271.758 122.813C 273.078 124.457 274.723 126.11 274.723 126.11C 274.723 126.11 238.887 126.11 200.414 126.11C 200.199 126.11 199.879 126.289 199.77 126.11C 196.645 120.817 192.59 119.656 188.926 119.656C 185.391 119.656 181.207 121.461 178.207 126.11C 178.066 126.324 177.691 126.11 177.434 126.11C 139.059 126.11 103.883 126.11 103.883 126.11C 103.883 126.11 106.234 123.805 107.516 122.477C 108.852 121.094 112.602 118.867 112.602 118.867"
       id="path2234" />
    <path
       style="stroke:none; fill-rule:evenodd; fill:#469eff"
       d="M 82.6797 150.942C 82.6797 150.942 85.082 147.129 85.7891 146.133C 86.5 145.149 89.043 142.031 89.043 142.031L 89.043 294.149C 89.043 294.149 86.0742 289.903 85.5078 288.91C 84.9414 287.926 82.5391 284.106 82.5391 284.106L 82.6797 150.949"
       id="path2236" />
    <path
       style="stroke:none; fill-rule:evenodd; fill:#469eff"
       d="M 295.805 150.942C 295.805 150.942 293.402 147.129 292.695 146.133C 291.988 145.149 289.441 142.031 289.441 142.031L 289.441 294.149C 289.441 294.149 292.414 289.903 292.977 288.91C 293.539 287.926 295.949 284.106 295.949 284.106L 295.809 150.949"
       id="path2238" />
    <path
       style="stroke:none; fill-rule:evenodd; fill:#adedff"
       d="M 82.6797 307.453C 82.6797 307.453 84.7617 311.293 86.0742 312.602C 87.3828 313.91 89.043 315.59 89.043 315.59L 89.043 355.762L 289.777 355.762L 289.754 316.196C 289.754 316.196 291.293 314.699 292.699 313.196C 294.121 311.672 295.418 310.149 295.418 310.149L 295.527 362.426L 82.5273 362.453L 82.668 307.453"
       id="path2240" />
    <path
       style="stroke:none; fill-rule:evenodd; fill:#adedff"
       d="M 286.012 118.844L 295.602 118.844L 295.602 128.543C 295.602 128.543 292.309 124.664 291.344 123.57C 290.375 122.485 286.016 118.848 286.016 118.848"
       id="path2242" />
    <path
       style="stroke:none; fill-rule:evenodd; fill:#adedff"
       d="M 92.0156 118.844L 82.6562 118.844L 82.6562 129.684C 82.6562 129.684 85.3672 125.863 86.5977 124.387C 87.8281 122.91 92.0156 118.848 92.0156 118.848"
       id="path2244" />
    <path
       style="stroke:none; fill-rule:evenodd; fill:#75d6ff"
       d="M 88.4023 86.824L 85.2109 89.082L 82.9531 85.899L 86.1406 83.637L 88.4023 86.828L 88.4023 86.824zM 89.332 81.375L 86.1406 83.629L 83.8867 80.446L 87.0742 78.188L 89.3359 81.375L 89.332 81.375zM 90.6602 90.016L 87.4727 92.278L 85.2109 89.086L 88.4023 86.828L 90.6602 90.016zM 92.5195 79.117L 89.3359 81.375L 87.0742 78.188L 90.2617 75.926L 92.5195 79.117zM 92.9219 93.207L 89.7344 95.469L 87.4727 92.281L 90.6602 90.02L 92.918 93.207L 92.9219 93.207zM 95.1836 96.399L 91.9922 98.656L 89.7383 95.469L 92.9258 93.207L 95.1836 96.395L 95.1836 96.399zM 95.7109 76.856L 92.5195 79.117L 90.2617 75.926L 93.4492 73.672L 95.7148 76.86L 95.7109 76.856zM 97.4414 99.586L 94.2578 101.848L 91.9961 98.656L 95.1875 96.399L 97.4453 99.586L 97.4414 99.586zM 98.3711 94.133L 95.1836 96.395L 92.9258 93.207L 96.1172 90.949L 98.3711 94.137L 98.3711 94.133zM 99.3008 88.688L 96.1172 90.946L 93.8555 87.758L 97.043 85.496L 99.3008 88.684L 99.3008 88.688zM 99.7031 102.774L 96.5156 105.035L 94.2578 101.848L 97.4414 99.586L 99.7031 102.774zM 100.23 83.235L 97.043 85.492L 94.7852 82.305L 97.9727 80.043L 100.234 83.231L 100.23 83.235zM 101.164 77.789L 97.9727 80.043L 95.7188 76.856L 98.9023 74.594L 101.164 77.785L 101.164 77.789zM 103.418 80.973L 100.234 83.235L 97.9727 80.047L 101.164 77.793L 103.418 80.977L 103.418 80.973zM 105.152 103.703L 101.965 105.961L 99.707 102.778L 102.898 100.516L 105.156 103.703L 105.152 103.703zM 105.684 84.164L 102.496 86.422L 100.238 83.235L 103.422 80.973L 105.684 84.16L 105.684 84.164zM 107.938 87.356L 104.754 89.613L 102.496 86.422L 105.684 84.164L 107.938 87.356zM 108.344 101.446L 105.156 103.699L 102.898 100.512L 106.09 98.254L 108.348 101.442L 108.344 101.446zM 110.203 90.547L 107.012 92.805L 104.754 89.621L 107.938 87.363L 110.199 90.551L 110.203 90.547zM 111.535 99.184L 108.348 101.446L 106.09 98.258L 109.277 96.004L 111.535 99.188L 111.535 99.184zM 112.465 93.731L 109.277 95.996L 107.016 92.805L 110.207 90.547L 112.469 93.731"
       id="path2246" />
    <path
       style="stroke:none; fill-rule:evenodd; fill:#75d6ff"
       d="M 111.582 76.129L 108.078 77.856L 106.348 74.352L 109.852 72.625L 111.578 76.133L 111.582 76.129zM 113.359 70.895L 109.855 72.621L 108.129 69.121L 111.633 67.391L 113.359 70.899L 113.359 70.895zM 115.133 65.66L 111.629 67.387L 109.898 63.887L 113.406 62.153L 115.133 65.664L 115.133 65.66zM 116.863 69.164L 113.359 70.895L 111.633 67.387L 115.137 65.66L 116.867 69.16L 116.863 69.164zM 118.594 72.672L 115.09 74.399L 113.359 70.899L 116.863 69.168L 118.594 72.676L 118.594 72.672zM 120.23 93.656L 116.723 95.387L 114.996 91.883L 118.504 90.156L 120.23 93.66L 120.23 93.656zM 120.32 76.18L 116.816 77.906L 115.09 74.399L 118.594 72.672L 120.32 76.176L 120.32 76.18zM 122.055 79.68L 118.551 81.406L 116.82 77.906L 120.324 76.18L 122.055 79.684L 122.055 79.68zM 123.734 91.93L 120.23 93.656L 118.504 90.153L 122.004 88.422L 123.734 91.93zM 123.781 83.188L 120.277 84.91L 118.555 81.406L 122.059 79.68L 123.785 83.188L 123.781 83.188zM 125.512 86.696L 122.008 88.422L 120.281 84.914L 123.785 83.192L 125.512 86.696zM 127.242 90.199L 123.734 91.93L 122.004 88.422L 125.508 86.696L 127.238 90.199L 127.242 90.199zM 130.75 88.469L 127.246 90.199L 125.516 86.696L 129.02 84.973L 130.746 88.469L 130.75 88.469zM 134.258 86.742L 130.75 88.465L 129.023 84.969L 132.527 83.235L 134.254 86.738"
       id="path2248" />
    <path
       style="stroke:none; fill-rule:evenodd; fill:#75d6ff"
       d="M 133.238 61.957L 129.508 63.117L 128.352 59.387L 132.082 58.231L 133.238 61.961L 133.238 61.957zM 134.398 65.692L 130.668 66.848L 129.512 63.117L 133.242 61.957L 134.398 65.688L 134.398 65.692zM 135.562 69.422L 131.832 70.582L 130.672 66.852L 134.402 65.696L 135.566 69.426L 135.562 69.422zM 135.812 57.067L 132.082 58.227L 130.922 54.496L 134.652 53.336L 135.812 57.07L 135.812 57.067zM 136.727 73.156L 132.996 74.317L 131.832 70.586L 135.562 69.426L 136.723 73.156L 136.727 73.156zM 137.887 76.891L 134.156 78.055L 133 74.32L 136.73 73.16L 137.887 76.891zM 139.047 80.621L 135.316 81.781L 134.156 78.051L 137.887 76.887L 139.043 80.617L 139.047 80.621zM 139.543 55.903L 135.816 57.067L 134.656 53.332L 138.387 52.172L 139.543 55.903zM 140.457 71.992L 136.73 73.153L 135.57 69.422L 139.301 68.262L 140.461 71.988L 140.457 71.992zM 143.031 67.098L 139.297 68.258L 138.141 64.528L 141.867 63.367L 143.027 67.098L 143.031 67.098zM 143.281 54.742L 139.547 55.899L 138.391 52.168L 142.121 51.008L 143.285 54.742L 143.281 54.742zM 143.941 83.196L 140.207 84.352L 139.051 80.621L 142.781 79.461L 143.945 83.196L 143.941 83.196zM 145.602 62.207L 141.867 63.367L 140.707 59.641L 144.441 58.477L 145.602 62.207zM 147.676 82.035L 143.945 83.196L 142.781 79.461L 146.516 78.305L 147.676 82.031L 147.676 82.035zM 148.172 57.313L 144.441 58.473L 143.281 54.746L 147.012 53.586L 148.172 57.317L 148.172 57.313zM 149.336 61.043L 145.605 62.203L 144.445 58.473L 148.176 57.313L 149.336 61.043zM 150.496 64.781L 146.766 65.938L 145.609 62.207L 149.34 61.047L 150.5 64.781L 150.496 64.781zM 151.402 80.875L 147.676 82.031L 146.516 78.305L 150.246 77.141L 151.402 80.875zM 151.66 68.516L 147.926 69.672L 146.77 65.942L 150.5 64.785L 151.66 68.52L 151.66 68.516zM 152.82 72.246L 149.09 73.406L 147.93 69.672L 151.664 68.516L 152.82 72.242L 152.82 72.246zM 153.98 75.977L 150.25 77.137L 149.09 73.41L 152.82 72.25L 153.98 75.981"
       id="path2250" />
    <path
       style="stroke:none; fill-rule:evenodd; fill:#75d6ff"
       d="M 158.613 58.949L 154.742 59.508L 154.188 55.641L 158.055 55.086L 158.609 58.953L 158.613 58.949zM 161.406 78.297L 157.535 78.856L 156.98 74.981L 160.848 74.422L 161.406 78.297zM 161.922 54.52L 158.059 55.078L 157.5 51.211L 161.367 50.649L 161.922 54.52zM 165.234 50.094L 161.367 50.649L 160.809 46.785L 164.672 46.223L 165.234 50.094zM 165.277 77.735L 161.41 78.293L 160.852 74.418L 164.719 73.863L 165.273 77.731L 165.277 77.735zM 165.793 53.961L 161.926 54.52L 161.371 50.649L 165.238 50.094L 165.797 53.961L 165.793 53.961zM 166.348 57.828L 162.484 58.387L 161.922 54.52L 165.789 53.961L 166.344 57.828L 166.348 57.828zM 166.91 61.703L 163.047 62.258L 162.488 58.391L 166.352 57.832L 166.91 61.703zM 167.469 65.567L 163.605 66.125L 163.051 62.258L 166.914 61.703L 167.469 65.567zM 168.031 69.442L 164.164 69.996L 163.609 66.133L 167.473 65.574L 168.031 69.446L 168.031 69.442zM 168.59 73.309L 164.723 73.867L 164.164 70L 168.031 69.446L 168.59 73.309zM 169.145 77.18L 165.277 77.735L 164.723 73.867L 168.59 73.309L 169.145 77.176L 169.145 77.18zM 173.016 76.617L 169.148 77.176L 168.594 73.309L 172.461 72.754L 173.016 76.617zM 176.887 76.063L 173.02 76.613L 172.465 72.75L 176.328 72.188L 176.891 76.063"
       id="path2252" />
    <path
       style="stroke:none; fill-rule:evenodd; fill:#75d6ff"
       d="M 183.594 71.735L 179.688 71.684L 179.734 67.774L 183.645 67.82L 183.594 71.731L 183.594 71.735zM 183.648 67.82L 179.738 67.774L 179.785 63.871L 183.691 63.914L 183.648 67.82zM 183.691 63.91L 179.785 63.867L 179.832 59.957L 183.738 60.008L 183.691 63.914L 183.691 63.91zM 183.738 60.004L 179.832 59.953L 179.879 56.051L 183.785 56.094L 183.738 60.004zM 183.789 56.09L 179.883 56.047L 179.926 52.137L 183.836 52.184L 183.789 56.09zM 183.84 52.184L 179.93 52.137L 179.98 48.227L 183.887 48.281L 183.84 52.188L 183.84 52.184zM 187.453 75.688L 183.547 75.637L 183.594 71.735L 187.504 71.774L 187.457 75.688L 187.453 75.688zM 187.602 63.961L 183.691 63.914L 183.738 60.008L 187.648 60.051L 187.598 63.961L 187.602 63.961zM 187.797 48.324L 183.891 48.278L 183.938 44.371L 187.844 44.414L 187.797 48.324zM 191.367 75.738L 187.457 75.692L 187.504 71.778L 191.41 71.828L 191.367 75.738zM 191.559 60.102L 187.656 60.051L 187.699 56.149L 191.609 56.192L 191.559 60.102zM 191.703 48.367L 187.797 48.324L 187.844 44.414L 191.746 44.461L 191.703 48.363L 191.703 48.367zM 195.273 75.781L 191.371 75.738L 191.414 71.828L 195.316 71.875L 195.273 75.781zM 195.516 56.238L 191.613 56.188L 191.66 52.285L 195.57 52.332L 195.52 56.238L 195.516 56.238zM 195.613 48.418L 191.707 48.371L 191.75 44.469L 195.66 44.516L 195.613 48.422L 195.613 48.418zM 199.234 71.926L 195.32 71.875L 195.367 67.969L 199.277 68.02L 199.23 71.926L 199.234 71.926zM 199.281 68.016L 195.371 67.965L 195.418 64.059L 199.328 64.11L 199.281 68.016zM 199.328 64.106L 195.418 64.055L 195.469 60.149L 199.375 60.196L 199.328 64.102L 199.328 64.106zM 199.379 60.199L 195.473 60.153L 195.516 56.246L 199.426 56.289L 199.375 60.199L 199.379 60.199zM 199.43 56.285L 195.52 56.242L 195.57 52.336L 199.473 52.383L 199.43 56.289L 199.43 56.285zM 199.473 52.379L 195.57 52.332L 195.613 48.422L 199.52 48.473L 199.469 52.375"
       id="path2254" />
    <path
       style="stroke:none; fill-rule:evenodd; fill:#75d6ff"
       d="M 206.484 72.555L 202.625 71.918L 203.262 68.067L 207.117 68.696L 206.484 72.555zM 207.121 68.696L 203.266 68.067L 203.898 64.211L 207.754 64.84L 207.117 68.692L 207.121 68.696zM 207.758 64.84L 203.902 64.211L 204.535 60.352L 208.391 60.985L 207.762 64.84L 207.758 64.84zM 208.391 60.985L 204.535 60.352L 205.168 56.496L 209.023 57.129L 208.391 60.985zM 209.027 57.125L 205.172 56.492L 205.805 52.637L 209.664 53.27L 209.027 57.125zM 209.664 53.27L 205.805 52.637L 206.441 48.781L 210.301 49.414L 209.664 53.274L 209.664 53.27zM 209.711 77.047L 205.859 76.414L 206.488 72.559L 210.348 73.192L 209.711 77.047zM 211.617 65.477L 207.762 64.844L 208.391 60.988L 212.25 61.625L 211.617 65.477zM 213.562 77.684L 209.711 77.051L 210.348 73.196L 214.203 73.832L 213.566 77.688L 213.562 77.684zM 214.156 50.047L 210.301 49.41L 210.93 45.559L 214.785 46.188L 214.152 50.043L 214.156 50.047zM 216.105 62.258L 212.254 61.621L 212.887 57.762L 216.742 58.399L 216.105 62.258zM 217.422 78.324L 213.566 77.688L 214.203 73.832L 218.062 74.465L 217.426 78.324L 217.422 78.324zM 218.008 50.68L 214.156 50.047L 214.789 46.192L 218.648 46.832L 218.008 50.684L 218.008 50.68zM 220.602 59.031L 216.742 58.399L 217.379 54.539L 221.23 55.176L 220.598 59.031L 220.602 59.031zM 221.871 51.317L 218.012 50.684L 218.652 46.832L 222.504 47.461L 221.871 51.317zM 221.918 75.098L 218.066 74.461L 218.695 70.61L 222.551 71.238L 221.918 75.094L 221.918 75.098zM 222.551 71.238L 218.695 70.61L 219.328 66.75L 223.184 67.383L 222.551 71.238zM 223.188 67.379L 219.332 66.746L 219.965 62.895L 223.824 63.524L 223.188 67.379zM 223.824 63.524L 219.965 62.895L 220.602 59.035L 224.457 59.668L 223.824 63.524zM 224.457 59.664L 220.602 59.031L 221.234 55.176L 225.09 55.813L 224.457 59.664zM 225.094 55.813L 221.238 55.176L 221.871 51.32L 225.727 51.953L 225.094 55.813"
       id="path2256" />
    <path
       style="stroke:none; fill-rule:evenodd; fill:#75d6ff"
       d="M 227.637 80.5L 223.918 79.297L 225.121 75.578L 228.836 76.789L 227.637 80.504L 227.637 80.5zM 231.355 81.711L 227.637 80.504L 228.836 76.789L 232.559 77.992L 231.355 81.711zM 233.656 61.906L 229.941 60.699L 231.145 56.985L 234.863 58.188L 233.652 61.906L 233.656 61.906zM 235.07 82.914L 231.355 81.711L 232.559 77.992L 236.27 79.196L 235.07 82.914zM 236.273 79.196L 232.562 77.992L 233.766 74.27L 237.48 75.473L 236.277 79.192L 236.273 79.196zM 237.48 75.477L 233.766 74.274L 234.969 70.555L 238.684 71.762L 237.477 75.477L 237.48 75.477zM 238.59 59.391L 234.871 58.188L 236.07 54.469L 239.793 55.676L 238.59 59.391zM 238.688 71.758L 234.973 70.551L 236.176 66.832L 239.895 68.035L 238.691 71.754L 238.688 71.758zM 238.789 84.113L 235.074 82.914L 236.273 79.196L 239.996 80.391L 238.785 84.11L 238.789 84.113zM 239.895 68.035L 236.176 66.832L 237.379 63.117L 241.094 64.317L 239.895 68.039L 239.895 68.035zM 241.098 64.313L 237.383 63.113L 238.594 59.395L 242.309 60.602L 241.102 64.313L 241.098 64.313zM 242.305 60.598L 238.59 59.391L 239.793 55.676L 243.508 56.879L 242.305 60.598zM 242.512 85.324L 238.789 84.117L 240 80.399L 243.719 81.606L 242.516 85.324L 242.512 85.324zM 243.512 56.879L 239.797 55.676L 241 51.957L 244.715 53.164L 243.512 56.883"
       id="path2258" />
    <path
       style="stroke:none; fill-rule:evenodd; fill:#75d6ff"
       d="M 250.434 84.352L 246.934 82.613L 248.676 79.113L 252.168 80.856L 250.43 84.352L 250.434 84.352zM 252.172 80.856L 248.68 79.113L 250.414 75.613L 253.914 77.348L 252.172 80.852L 252.172 80.856zM 252.188 89.59L 248.688 87.852L 250.434 84.352L 253.93 86.094L 252.188 89.59zM 253.918 77.348L 250.418 75.613L 252.16 72.117L 255.66 73.856L 253.922 77.348L 253.918 77.348zM 255.656 73.852L 252.156 72.113L 253.895 68.61L 257.395 70.352L 255.652 73.848L 255.656 73.852zM 255.688 91.34L 252.188 89.594L 253.93 86.098L 257.422 87.836L 255.684 91.34L 255.688 91.34zM 257.402 70.352L 253.902 68.61L 255.648 65.113L 259.148 66.852L 257.406 70.352L 257.402 70.352zM 257.418 79.098L 253.918 77.348L 255.656 73.856L 259.16 75.598L 257.418 79.098zM 259.148 66.852L 255.648 65.113L 257.387 61.613L 260.891 63.352L 259.148 66.848L 259.148 66.852zM 259.184 93.082L 255.688 91.34L 257.426 87.836L 260.93 89.578L 259.188 93.082L 259.184 93.082zM 262.66 77.34L 259.16 75.598L 260.898 72.098L 264.398 73.844L 262.66 77.336L 262.66 77.34zM 264.391 65.098L 260.895 63.356L 262.633 59.863L 266.125 61.606L 264.391 65.102L 264.391 65.098zM 264.426 91.324L 260.934 89.582L 262.672 86.09L 266.172 87.828L 264.43 91.324L 264.426 91.324zM 266.172 87.824L 262.672 86.086L 264.418 82.582L 267.918 84.324L 266.172 87.824zM 267.883 66.844L 264.395 65.098L 266.129 61.602L 269.633 63.344L 267.883 66.844zM 267.902 75.582L 264.402 73.848L 266.141 70.344L 269.637 72.086L 267.898 75.578L 267.902 75.582zM 267.918 84.324L 264.418 82.582L 266.156 79.09L 269.656 80.828L 267.918 84.324zM 269.656 80.824L 266.156 79.086L 267.898 75.586L 271.395 77.328L 269.656 80.828L 269.656 80.824zM 271.387 68.582L 267.887 66.844L 269.637 63.344L 273.133 65.082L 271.391 68.582L 271.387 68.582zM 271.398 77.324L 267.902 75.582L 269.641 72.09L 273.145 73.828L 271.398 77.324zM 273.145 73.824L 269.641 72.086L 271.383 68.586L 274.875 70.328L 273.141 73.824"
       id="path2260" />
    <path
       style="stroke:none; fill-rule:evenodd; fill:#75d6ff"
       d="M 268.434 98.223L 265.234 95.969L 267.492 92.778L 270.68 95.031L 268.434 98.219L 268.434 98.223zM 271.625 100.481L 268.438 98.227L 270.684 95.039L 273.875 97.289L 271.625 100.481zM 274.82 102.731L 271.625 100.481L 273.875 97.289L 277.07 99.539L 274.816 102.731L 274.82 102.731zM 277.074 99.539L 273.879 97.289L 276.137 94.098L 279.328 96.352L 277.074 99.543L 277.074 99.539zM 278.016 104.992L 274.82 102.735L 277.074 99.543L 280.262 101.801L 278.012 104.992L 278.016 104.992zM 279.328 96.344L 276.137 94.09L 278.391 90.899L 281.578 93.153L 279.328 96.344zM 279.703 82.254L 276.508 80L 278.766 76.805L 281.957 79.059L 279.703 82.25L 279.703 82.254zM 281.211 107.238L 278.02 104.992L 280.27 101.801L 283.461 104.047L 281.215 107.238L 281.211 107.238zM 281.578 93.149L 278.391 90.895L 280.641 87.707L 283.836 89.961L 281.582 93.149L 281.578 93.149zM 283.836 89.961L 280.641 87.707L 282.895 84.512L 286.086 86.77L 283.832 89.965L 283.836 89.961zM 285.145 81.313L 281.961 79.059L 284.211 75.871L 287.406 78.125L 285.148 81.313L 285.145 81.313zM 286.09 86.766L 282.898 84.508L 285.145 81.32L 288.344 83.57L 286.086 86.766L 286.09 86.766zM 288.348 83.567L 285.148 81.317L 287.406 78.129L 290.598 80.383L 288.348 83.57L 288.348 83.567zM 290.598 80.375L 287.406 78.121L 289.66 74.926L 292.852 77.176L 290.598 80.371"
       id="path2262" />
    <path
       style="stroke:none; fill-rule:evenodd; fill:#2582ff"
       d="M 88.4023 86.824L 85.2109 89.082L 82.9531 85.899L 86.1406 83.637L 88.4023 86.828L 88.4023 86.824zM 89.332 81.375L 86.1406 83.629L 83.8867 80.446L 87.0742 78.188L 89.3359 81.375L 89.332 81.375zM 90.6602 90.016L 87.4727 92.278L 85.2109 89.086L 88.4023 86.828L 90.6602 90.016zM 92.5195 79.117L 89.3359 81.375L 87.0742 78.188L 90.2617 75.926L 92.5195 79.117zM 92.9219 93.207L 89.7344 95.469L 87.4727 92.281L 90.6602 90.02L 92.918 93.207L 92.9219 93.207zM 95.1836 96.399L 91.9922 98.656L 89.7383 95.469L 92.9258 93.207L 95.1836 96.395L 95.1836 96.399zM 95.7109 76.856L 92.5195 79.117L 90.2617 75.926L 93.4492 73.672L 95.7148 76.86L 95.7109 76.856zM 97.4414 99.586L 94.2578 101.848L 91.9961 98.656L 95.1875 96.399L 97.4453 99.586L 97.4414 99.586zM 98.3711 94.133L 95.1836 96.395L 92.9258 93.207L 96.1172 90.949L 98.3711 94.137L 98.3711 94.133zM 99.3008 88.688L 96.1172 90.946L 93.8555 87.758L 97.043 85.496L 99.3008 88.684L 99.3008 88.688zM 99.7031 102.774L 96.5156 105.035L 94.2578 101.848L 97.4414 99.586L 99.7031 102.774zM 100.23 83.235L 97.043 85.492L 94.7852 82.305L 97.9727 80.043L 100.234 83.231L 100.23 83.235zM 101.164 77.789L 97.9727 80.043L 95.7188 76.856L 98.9023 74.594L 101.164 77.785L 101.164 77.789zM 103.418 80.973L 100.234 83.235L 97.9727 80.047L 101.164 77.793L 103.418 80.977L 103.418 80.973zM 105.152 103.703L 101.965 105.961L 99.707 102.778L 102.898 100.516L 105.156 103.703L 105.152 103.703zM 105.684 84.164L 102.496 86.422L 100.238 83.235L 103.422 80.973L 105.684 84.16L 105.684 84.164zM 107.938 87.356L 104.754 89.613L 102.496 86.422L 105.684 84.164L 107.938 87.356zM 108.344 101.446L 105.156 103.699L 102.898 100.512L 106.09 98.254L 108.348 101.442L 108.344 101.446zM 110.203 90.547L 107.012 92.805L 104.754 89.621L 107.938 87.363L 110.199 90.551L 110.203 90.547zM 111.535 99.184L 108.348 101.446L 106.09 98.258L 109.277 96.004L 111.535 99.188L 111.535 99.184zM 112.465 93.731L 109.277 95.996L 107.016 92.805L 110.207 90.547L 112.469 93.731"
       id="path2264" />
    <path
       style="stroke:none; fill-rule:evenodd; fill:#2582ff"
       d="M 111.582 76.129L 108.078 77.856L 106.348 74.352L 109.852 72.625L 111.578 76.133L 111.582 76.129zM 113.359 70.895L 109.855 72.621L 108.129 69.121L 111.633 67.391L 113.359 70.899L 113.359 70.895zM 115.133 65.66L 111.629 67.387L 109.898 63.887L 113.406 62.153L 115.133 65.664L 115.133 65.66zM 116.863 69.164L 113.359 70.895L 111.633 67.387L 115.137 65.66L 116.867 69.16L 116.863 69.164zM 118.594 72.672L 115.09 74.399L 113.359 70.899L 116.863 69.168L 118.594 72.676L 118.594 72.672zM 120.23 93.656L 116.723 95.387L 114.996 91.883L 118.504 90.156L 120.23 93.66L 120.23 93.656zM 120.32 76.18L 116.816 77.906L 115.09 74.399L 118.594 72.672L 120.32 76.176L 120.32 76.18zM 122.055 79.68L 118.551 81.406L 116.82 77.906L 120.324 76.18L 122.055 79.684L 122.055 79.68zM 123.734 91.93L 120.23 93.656L 118.504 90.153L 122.004 88.422L 123.734 91.93zM 123.781 83.188L 120.277 84.91L 118.555 81.406L 122.059 79.68L 123.785 83.188L 123.781 83.188zM 125.512 86.696L 122.008 88.422L 120.281 84.914L 123.785 83.192L 125.512 86.696zM 127.242 90.199L 123.734 91.93L 122.004 88.422L 125.508 86.696L 127.238 90.199L 127.242 90.199zM 130.75 88.469L 127.246 90.199L 125.516 86.696L 129.02 84.973L 130.746 88.469L 130.75 88.469zM 134.258 86.742L 130.75 88.465L 129.023 84.969L 132.527 83.235L 134.254 86.738"
       id="path2266" />
    <path
       style="stroke:none; fill-rule:evenodd; fill:#2582ff"
       d="M 133.238 61.957L 129.508 63.117L 128.352 59.387L 132.082 58.231L 133.238 61.961L 133.238 61.957zM 134.398 65.692L 130.668 66.848L 129.512 63.117L 133.242 61.957L 134.398 65.688L 134.398 65.692zM 135.562 69.422L 131.832 70.582L 130.672 66.852L 134.402 65.696L 135.566 69.426L 135.562 69.422zM 135.812 57.067L 132.082 58.227L 130.922 54.496L 134.652 53.336L 135.812 57.07L 135.812 57.067zM 136.727 73.156L 132.996 74.317L 131.832 70.586L 135.562 69.426L 136.723 73.156L 136.727 73.156zM 137.887 76.891L 134.156 78.055L 133 74.32L 136.73 73.16L 137.887 76.891zM 139.047 80.621L 135.316 81.781L 134.156 78.051L 137.887 76.887L 139.043 80.617L 139.047 80.621zM 139.543 55.903L 135.816 57.067L 134.656 53.332L 138.387 52.172L 139.543 55.903zM 140.457 71.992L 136.73 73.153L 135.57 69.422L 139.301 68.262L 140.461 71.988L 140.457 71.992zM 143.031 67.098L 139.297 68.258L 138.141 64.528L 141.867 63.367L 143.027 67.098L 143.031 67.098zM 143.281 54.742L 139.547 55.899L 138.391 52.168L 142.121 51.008L 143.285 54.742L 143.281 54.742zM 143.941 83.196L 140.207 84.352L 139.051 80.621L 142.781 79.461L 143.945 83.196L 143.941 83.196zM 145.602 62.207L 141.867 63.367L 140.707 59.641L 144.441 58.477L 145.602 62.207zM 147.676 82.035L 143.945 83.196L 142.781 79.461L 146.516 78.305L 147.676 82.031L 147.676 82.035zM 148.172 57.313L 144.441 58.473L 143.281 54.746L 147.012 53.586L 148.172 57.317L 148.172 57.313zM 149.336 61.043L 145.605 62.203L 144.445 58.473L 148.176 57.313L 149.336 61.043zM 150.496 64.781L 146.766 65.938L 145.609 62.207L 149.34 61.047L 150.5 64.781L 150.496 64.781zM 151.402 80.875L 147.676 82.031L 146.516 78.305L 150.246 77.141L 151.402 80.875zM 151.66 68.516L 147.926 69.672L 146.77 65.942L 150.5 64.785L 151.66 68.52L 151.66 68.516zM 152.82 72.246L 149.09 73.406L 147.93 69.672L 151.664 68.516L 152.82 72.242L 152.82 72.246zM 153.98 75.977L 150.25 77.137L 149.09 73.41L 152.82 72.25L 153.98 75.981"
       id="path2268" />
    <path
       style="stroke:none; fill-rule:evenodd; fill:#2582ff"
       d="M 158.613 58.949L 154.742 59.508L 154.188 55.641L 158.055 55.086L 158.609 58.953L 158.613 58.949zM 161.406 78.297L 157.535 78.856L 156.98 74.981L 160.848 74.422L 161.406 78.297zM 161.922 54.52L 158.059 55.078L 157.5 51.211L 161.367 50.649L 161.922 54.52zM 165.234 50.094L 161.367 50.649L 160.809 46.785L 164.672 46.223L 165.234 50.094zM 165.277 77.735L 161.41 78.293L 160.852 74.418L 164.719 73.863L 165.273 77.731L 165.277 77.735zM 165.793 53.961L 161.926 54.52L 161.371 50.649L 165.238 50.094L 165.797 53.961L 165.793 53.961zM 166.348 57.828L 162.484 58.387L 161.922 54.52L 165.789 53.961L 166.344 57.828L 166.348 57.828zM 166.91 61.703L 163.047 62.258L 162.488 58.391L 166.352 57.832L 166.91 61.703zM 167.469 65.567L 163.605 66.125L 163.051 62.258L 166.914 61.703L 167.469 65.567zM 168.031 69.442L 164.164 69.996L 163.609 66.133L 167.473 65.574L 168.031 69.446L 168.031 69.442zM 168.59 73.309L 164.723 73.867L 164.164 70L 168.031 69.446L 168.59 73.309zM 169.145 77.18L 165.277 77.735L 164.723 73.867L 168.59 73.309L 169.145 77.176L 169.145 77.18zM 173.016 76.617L 169.148 77.176L 168.594 73.309L 172.461 72.754L 173.016 76.617zM 176.887 76.063L 173.02 76.613L 172.465 72.75L 176.328 72.188L 176.891 76.063"
       id="path2270" />
    <path
       style="stroke:none; fill-rule:evenodd; fill:#2582ff"
       d="M 183.594 71.735L 179.688 71.684L 179.734 67.774L 183.645 67.82L 183.594 71.731L 183.594 71.735zM 183.648 67.82L 179.738 67.774L 179.785 63.871L 183.691 63.914L 183.648 67.82zM 183.691 63.91L 179.785 63.867L 179.832 59.957L 183.738 60.008L 183.691 63.914L 183.691 63.91zM 183.738 60.004L 179.832 59.953L 179.879 56.051L 183.785 56.094L 183.738 60.004zM 183.789 56.09L 179.883 56.047L 179.926 52.137L 183.836 52.184L 183.789 56.09zM 183.84 52.184L 179.93 52.137L 179.98 48.227L 183.887 48.281L 183.84 52.188L 183.84 52.184zM 187.453 75.688L 183.547 75.637L 183.594 71.735L 187.504 71.774L 187.457 75.688L 187.453 75.688zM 187.602 63.961L 183.691 63.914L 183.738 60.008L 187.648 60.051L 187.598 63.961L 187.602 63.961zM 187.797 48.324L 183.891 48.278L 183.938 44.371L 187.844 44.414L 187.797 48.324zM 191.367 75.738L 187.457 75.692L 187.504 71.778L 191.41 71.828L 191.367 75.738zM 191.559 60.102L 187.656 60.051L 187.699 56.149L 191.609 56.192L 191.559 60.102zM 191.703 48.367L 187.797 48.324L 187.844 44.414L 191.746 44.461L 191.703 48.363L 191.703 48.367zM 195.273 75.781L 191.371 75.738L 191.414 71.828L 195.316 71.875L 195.273 75.781zM 195.516 56.238L 191.613 56.188L 191.66 52.285L 195.57 52.332L 195.52 56.238L 195.516 56.238zM 195.613 48.418L 191.707 48.371L 191.75 44.469L 195.66 44.516L 195.613 48.422L 195.613 48.418zM 199.234 71.926L 195.32 71.875L 195.367 67.969L 199.277 68.02L 199.23 71.926L 199.234 71.926zM 199.281 68.016L 195.371 67.965L 195.418 64.059L 199.328 64.11L 199.281 68.016zM 199.328 64.106L 195.418 64.055L 195.469 60.149L 199.375 60.196L 199.328 64.102L 199.328 64.106zM 199.379 60.199L 195.473 60.153L 195.516 56.246L 199.426 56.289L 199.375 60.199L 199.379 60.199zM 199.43 56.285L 195.52 56.242L 195.57 52.336L 199.473 52.383L 199.43 56.289L 199.43 56.285zM 199.473 52.379L 195.57 52.332L 195.613 48.422L 199.52 48.473L 199.469 52.375"
       id="path2272" />
    <path
       style="stroke:none; fill-rule:evenodd; fill:#2582ff"
       d="M 206.484 72.555L 202.625 71.918L 203.262 68.067L 207.117 68.696L 206.484 72.555zM 207.121 68.696L 203.266 68.067L 203.898 64.211L 207.754 64.84L 207.117 68.692L 207.121 68.696zM 207.758 64.84L 203.902 64.211L 204.535 60.352L 208.391 60.985L 207.762 64.84L 207.758 64.84zM 208.391 60.985L 204.535 60.352L 205.168 56.496L 209.023 57.129L 208.391 60.985zM 209.027 57.125L 205.172 56.492L 205.805 52.637L 209.664 53.27L 209.027 57.125zM 209.664 53.27L 205.805 52.637L 206.441 48.781L 210.301 49.414L 209.664 53.274L 209.664 53.27zM 209.711 77.047L 205.859 76.414L 206.488 72.559L 210.348 73.192L 209.711 77.047zM 211.617 65.477L 207.762 64.844L 208.391 60.988L 212.25 61.625L 211.617 65.477zM 213.562 77.684L 209.711 77.051L 210.348 73.196L 214.203 73.832L 213.566 77.688L 213.562 77.684zM 214.156 50.047L 210.301 49.41L 210.93 45.559L 214.785 46.188L 214.152 50.043L 214.156 50.047zM 216.105 62.258L 212.254 61.621L 212.887 57.762L 216.742 58.399L 216.105 62.258zM 217.422 78.324L 213.566 77.688L 214.203 73.832L 218.062 74.465L 217.426 78.324L 217.422 78.324zM 218.008 50.68L 214.156 50.047L 214.789 46.192L 218.648 46.832L 218.008 50.684L 218.008 50.68zM 220.602 59.031L 216.742 58.399L 217.379 54.539L 221.23 55.176L 220.598 59.031L 220.602 59.031zM 221.871 51.317L 218.012 50.684L 218.652 46.832L 222.504 47.461L 221.871 51.317zM 221.918 75.098L 218.066 74.461L 218.695 70.61L 222.551 71.238L 221.918 75.094L 221.918 75.098zM 222.551 71.238L 218.695 70.61L 219.328 66.75L 223.184 67.383L 222.551 71.238zM 223.188 67.379L 219.332 66.746L 219.965 62.895L 223.824 63.524L 223.188 67.379zM 223.824 63.524L 219.965 62.895L 220.602 59.035L 224.457 59.668L 223.824 63.524zM 224.457 59.664L 220.602 59.031L 221.234 55.176L 225.09 55.813L 224.457 59.664zM 225.094 55.813L 221.238 55.176L 221.871 51.32L 225.727 51.953L 225.094 55.813"
       id="path2274" />
    <path
       style="stroke:none; fill-rule:evenodd; fill:#2582ff"
       d="M 227.637 80.5L 223.918 79.297L 225.121 75.578L 228.836 76.789L 227.637 80.504L 227.637 80.5zM 231.355 81.711L 227.637 80.504L 228.836 76.789L 232.559 77.992L 231.355 81.711zM 233.656 61.906L 229.941 60.699L 231.145 56.985L 234.863 58.188L 233.652 61.906L 233.656 61.906zM 235.07 82.914L 231.355 81.711L 232.559 77.992L 236.27 79.196L 235.07 82.914zM 236.273 79.196L 232.562 77.992L 233.766 74.27L 237.48 75.473L 236.277 79.192L 236.273 79.196zM 237.48 75.477L 233.766 74.274L 234.969 70.555L 238.684 71.762L 237.477 75.477L 237.48 75.477zM 238.59 59.391L 234.871 58.188L 236.07 54.469L 239.793 55.676L 238.59 59.391zM 238.688 71.758L 234.973 70.551L 236.176 66.832L 239.895 68.035L 238.691 71.754L 238.688 71.758zM 238.789 84.113L 235.074 82.914L 236.273 79.196L 239.996 80.391L 238.785 84.11L 238.789 84.113zM 239.895 68.035L 236.176 66.832L 237.379 63.117L 241.094 64.317L 239.895 68.039L 239.895 68.035zM 241.098 64.313L 237.383 63.113L 238.594 59.395L 242.309 60.602L 241.102 64.313L 241.098 64.313zM 242.305 60.598L 238.59 59.391L 239.793 55.676L 243.508 56.879L 242.305 60.598zM 242.512 85.324L 238.789 84.117L 240 80.399L 243.719 81.606L 242.516 85.324L 242.512 85.324zM 243.512 56.879L 239.797 55.676L 241 51.957L 244.715 53.164L 243.512 56.883"
       id="path2276" />
    <path
       style="stroke:none; fill-rule:evenodd; fill:#2582ff"
       d="M 250.434 84.352L 246.934 82.613L 248.676 79.113L 252.168 80.856L 250.43 84.352L 250.434 84.352zM 252.172 80.856L 248.68 79.113L 250.414 75.613L 253.914 77.348L 252.172 80.852L 252.172 80.856zM 252.188 89.59L 248.688 87.852L 250.434 84.352L 253.93 86.094L 252.188 89.59zM 253.918 77.348L 250.418 75.613L 252.16 72.117L 255.66 73.856L 253.922 77.348L 253.918 77.348zM 255.656 73.852L 252.156 72.113L 253.895 68.61L 257.395 70.352L 255.652 73.848L 255.656 73.852zM 255.688 91.34L 252.188 89.594L 253.93 86.098L 257.422 87.836L 255.684 91.34L 255.688 91.34zM 257.402 70.352L 253.902 68.61L 255.648 65.113L 259.148 66.852L 257.406 70.352L 257.402 70.352zM 257.418 79.098L 253.918 77.348L 255.656 73.856L 259.16 75.598L 257.418 79.098zM 259.148 66.852L 255.648 65.113L 257.387 61.613L 260.891 63.352L 259.148 66.848L 259.148 66.852zM 259.184 93.082L 255.688 91.34L 257.426 87.836L 260.93 89.578L 259.188 93.082L 259.184 93.082zM 262.66 77.34L 259.16 75.598L 260.898 72.098L 264.398 73.844L 262.66 77.336L 262.66 77.34zM 264.391 65.098L 260.895 63.356L 262.633 59.863L 266.125 61.606L 264.391 65.102L 264.391 65.098zM 264.426 91.324L 260.934 89.582L 262.672 86.09L 266.172 87.828L 264.43 91.324L 264.426 91.324zM 266.172 87.824L 262.672 86.086L 264.418 82.582L 267.918 84.324L 266.172 87.824zM 267.883 66.844L 264.395 65.098L 266.129 61.602L 269.633 63.344L 267.883 66.844zM 267.902 75.582L 264.402 73.848L 266.141 70.344L 269.637 72.086L 267.898 75.578L 267.902 75.582zM 267.918 84.324L 264.418 82.582L 266.156 79.09L 269.656 80.828L 267.918 84.324zM 269.656 80.824L 266.156 79.086L 267.898 75.586L 271.395 77.328L 269.656 80.828L 269.656 80.824zM 271.387 68.582L 267.887 66.844L 269.637 63.344L 273.133 65.082L 271.391 68.582L 271.387 68.582zM 271.398 77.324L 267.902 75.582L 269.641 72.09L 273.145 73.828L 271.398 77.324zM 273.145 73.824L 269.641 72.086L 271.383 68.586L 274.875 70.328L 273.141 73.824"
       id="path2278" />
    <path
       style="stroke:none; fill-rule:evenodd; fill:#2582ff"
       d="M 268.434 98.223L 265.234 95.969L 267.492 92.778L 270.68 95.031L 268.434 98.219L 268.434 98.223zM 271.625 100.481L 268.438 98.227L 270.684 95.039L 273.875 97.289L 271.625 100.481zM 274.82 102.731L 271.625 100.481L 273.875 97.289L 277.07 99.539L 274.816 102.731L 274.82 102.731zM 277.074 99.539L 273.879 97.289L 276.137 94.098L 279.328 96.352L 277.074 99.543L 277.074 99.539zM 278.016 104.992L 274.82 102.735L 277.074 99.543L 280.262 101.801L 278.012 104.992L 278.016 104.992zM 279.328 96.344L 276.137 94.09L 278.391 90.899L 281.578 93.153L 279.328 96.344zM 279.703 82.254L 276.508 80L 278.766 76.805L 281.957 79.059L 279.703 82.25L 279.703 82.254zM 281.211 107.238L 278.02 104.992L 280.27 101.801L 283.461 104.047L 281.215 107.238L 281.211 107.238zM 281.578 93.149L 278.391 90.895L 280.641 87.707L 283.836 89.961L 281.582 93.149L 281.578 93.149zM 283.836 89.961L 280.641 87.707L 282.895 84.512L 286.086 86.77L 283.832 89.965L 283.836 89.961zM 285.145 81.313L 281.961 79.059L 284.211 75.871L 287.406 78.125L 285.148 81.313L 285.145 81.313zM 286.09 86.766L 282.898 84.508L 285.145 81.32L 288.344 83.57L 286.086 86.766L 286.09 86.766zM 288.348 83.567L 285.148 81.317L 287.406 78.129L 290.598 80.383L 288.348 83.57L 288.348 83.567zM 290.598 80.375L 287.406 78.121L 289.66 74.926L 292.852 77.176L 290.598 80.371"
       id="path2280" />
    <path
       style="stroke:none; fill-rule:evenodd; fill:#2582ff"
       d="M 189.117 228.231C 188.645 228.469 188.191 228.988 187.777 229.653C 186.816 231.192 186.238 236 184.695 239.086C 183.16 242.164 183.16 245.125 182.582 250.133C 182.004 255.141 183.219 257.789 182.637 264.531C 182.062 271.266 177.766 283.563 177.383 287.418C 177 291.266 180.652 291.461 180.082 300.895C 179.504 310.328 178.539 328.817 178.926 331.899C 179.309 334.985 178.926 337.293 179.5 338.446C 180.078 339.598 181.035 340.945 179.5 340.945C 177.961 340.945 178.344 341.527 176.418 341.332C 174.492 341.137 173.148 341.137 172.953 339.985C 172.762 338.832 173.914 339.024 174.684 337.676C 175.453 336.328 176.219 334.024 176.219 331.699C 176.219 329.395 175.836 315.231 173.336 310.223C 170.832 305.219 171.41 295.504 171.797 291.074C 172.184 286.645 170.367 263.168 170.367 259.891C 170.367 256.617 172.375 248.125 172.953 241.774C 173.523 235.422 172.402 227.567 175.605 223.961C 179.555 219.531 175.742 217.633 174.977 214.738C 174.203 211.856 176.223 208.848 176.992 198.059C 177.758 187.278 175.066 187.278 175.453 184.965C 175.836 182.656 177.57 182.274 177.953 180.156C 178.336 178.039 175.836 174.57 172.18 168.41C 168.52 162.25 167.555 157.82 164.859 157.82C 162.168 157.82 161.77 158.274 160.227 157.313C 160.227 157.313 161.008 153.012 166.207 153.399C 171.402 153.781 172.945 157.633 176.027 159.746C 179.105 161.867 184.133 163.215 184.902 163.215C 185.672 163.215 187.773 159.168 187.582 157.629C 187.391 156.09 186.43 153.586 186.43 153.586C 186.43 153.586 187.004 152.617 188.926 152.43C 188.988 152.422 189.047 152.43 189.113 152.43L 189.113 149.156C 181.617 148.883 183.273 135.641 183.273 135.641C 183.273 135.641 183.273 125.68 188.961 125.68C 189.012 125.68 189.062 125.684 189.113 125.684L 189.113 120.641C 178.801 120.977 177.531 132.113 177.531 136.465C 177.531 138.395 177.934 141.438 178.914 144.219C 179.445 145.735 182.496 149.672 182.496 149.672C 182.496 149.672 181.613 152.313 180.012 151.981C 178.414 151.649 174.695 149.809 171.539 148.543C 168.383 147.281 159.273 146.52 155.48 146.52C 151.691 146.52 147.27 140.836 138.43 138.305C 129.586 135.781 122.004 137.043 118.215 135.781C 115.957 135.031 113.57 134.34 110.238 133.133C 107.984 132.317 104.273 130.106 100.707 130.106C 100.027 130.106 99.3633 130.434 98.8047 130.524C 95.5664 131.051 94.7344 132.863 94.7344 132.863C 94.7344 132.863 94.4102 132.813 94.3047 132.922C 93.8164 133.481 92.3477 135.082 92.3477 136.887C 92.3477 138.856 91.7383 138.367 93.3086 138.543C 94.6328 138.692 94.8984 135.676 95.4609 135.641C 95.9414 135.613 98.043 133.211 99.0469 133.774C 99.5195 134.035 102.082 134.215 102.941 134.781C 103.832 135.371 101.324 136.285 100.836 136.574C 100.02 137.059 99.2969 137.848 99.5938 138.285C 99.9414 138.981 101.707 138.844 102.93 138.649C 104.363 138.426 105.824 137.91 105.977 137.883C 108.699 137.336 107.621 138.137 111.484 140.684C 121.867 145.832 124.543 150.297 131.492 152.192C 138.441 154.086 147.285 157.879 151.074 159.774C 154.863 161.668 160.547 167.352 163.707 168.613C 166.863 169.879 170.652 190.719 171.281 197.043C 171.914 203.352 167.492 221.043 167.492 236.203C 167.492 245.672 165.406 251.574 165.188 260.121C 165.062 265.254 166.629 274.414 166.863 277.258C 167.492 284.836 168.734 291.785 167.199 299.996C 165.691 308.07 170.191 319.41 171.449 325.094C 172.715 330.781 170.023 334.735 168.762 337.891C 167.496 341.051 168.082 343.145 168.082 343.145C 168.082 343.145 181.109 345.902 185.156 344.652C 187.371 343.965 184.551 342.317 184.551 338.528C 184.551 334.735 182.66 325.262 182.66 321.473C 182.66 317.68 184.551 308.836 184.551 300.625C 184.551 292.414 183.289 289.258 183.289 286.731C 183.289 284.207 183.922 285.465 185.816 278.52C 187.707 271.574 187.707 253.453 187.707 249.668C 187.707 247.317 188.426 246.27 189.125 246.43L 189.125 228.223L 189.117 228.231zM 136.918 149.875C 123.02 143.957 129.332 142.524 114.73 139.094L 118.371 137.988C 118.371 137.988 118.109 138.469 123.516 139.024C 129.762 139.664 137.102 142.082 139.598 143.781C 146.27 148.32 158.473 151.387 158.473 151.387C 158.473 151.387 149.34 154.574 136.91 149.875"
       id="path2282" />
    <path
       style="stroke:none; fill-rule:evenodd; fill:#469eff"
       d="M 144.953 159.5C 140.91 156.672 132.578 154.387 130.832 154.192C 129.09 153.996 127.566 154.238 123.52 154.649C 121.07 154.895 115.848 155.219 110.547 154.762C 107.098 154.469 103.586 153.278 100.875 153.438C 94.0039 153.836 94.5898 154.199 92.9727 155.82C 91.3555 157.43 89.3242 161.078 89.7305 163.508C 89.8984 164.535 90.4844 164.379 91.5117 163.211C 92.0469 162.598 93.0117 159.383 94.125 158.672C 94.625 158.356 97.1016 157.813 97.5859 157.52C 97.9102 157.324 98.7695 157.383 99.4336 158.363C 99.5 158.465 97.4023 160.633 96.7422 161.594C 95.9805 162.703 96.5195 163.727 96.5898 163.828C 96.9062 164.254 101.445 160.672 101.594 160.598C 104.828 158.981 106.574 161.063 112.988 162.531C 119.293 163.981 126.758 166.375 132.016 166.785C 137.273 167.188 154.66 167.992 155.875 166.785C 157.086 165.574 149 162.34 144.953 159.508L 144.953 159.5zM 129.977 162.406C 125.934 162.004 116.648 158.696 116.648 158.696C 116.648 158.696 125.949 157.481 129.59 157.481C 133.227 157.481 141.395 161.422 142.934 161.93C 147.195 163.32 134.016 162.817 129.977 162.406"
       id="path2284" />
    <path
       style="stroke:none; fill-rule:evenodd; fill:#469eff"
       d="M 165.832 225.692C 165.832 225.692 158.555 236.617 156.527 243.488C 154.508 250.363 152.082 260.477 149.652 265.328C 147.23 270.18 139.949 277.457 137.527 283.125C 135.094 288.781 133.891 306.18 131.453 312.641C 129.031 319.11 120.543 321.137 120.543 322.75C 120.543 324.371 120.137 324.774 122.969 325.992C 125.793 327.199 131.449 332.055 133.48 332.055C 135.5 332.055 138.328 321.137 143.184 313.047C 148.031 304.961 150.863 304.153 153.289 298.895C 155.715 293.633 156.121 287.977 158.547 284.738C 160.973 281.508 164.203 277.461 164.203 277.461L 164.203 266.137C 164.203 266.137 161.777 270.992 158.547 274.629C 155.316 278.27 151.672 279.887 150.863 283.528C 150.055 287.164 150.055 292.418 148.438 294.043C 146.824 295.656 135.5 313.051 135.5 313.051C 135.5 313.051 139.539 295.66 141.156 289.192C 142.773 282.719 148.438 281.102 151.27 276.25C 154.098 271.399 156.523 262.5 158.547 257.242C 160.566 251.988 164.613 243.496 164.613 243.496L 165.824 225.699"
       id="path2286" />
    <path
       style="stroke:none; fill-rule:evenodd; fill:#2582ff"
       d="M 189.086 246.442C 189.781 246.285 190.5 247.328 190.5 249.68C 190.5 253.465 190.5 271.582 192.395 278.531C 194.285 285.473 194.918 284.215 194.918 286.742C 194.918 289.266 193.656 292.426 193.656 300.637C 193.656 308.848 195.547 317.692 195.547 321.485C 195.547 325.27 193.656 334.746 193.656 338.539C 193.656 342.324 190.836 343.973 193.055 344.664C 197.098 345.91 210.129 343.156 210.129 343.156C 210.129 343.156 210.715 341.067 209.449 337.903C 208.188 334.75 205.496 330.793 206.762 325.106C 208.02 319.426 212.52 308.082 211.012 300.008C 209.477 291.797 210.719 284.852 211.348 277.27C 211.582 274.426 213.152 265.27 213.023 260.133C 212.809 251.586 210.719 245.684 210.719 236.215C 210.719 221.055 206.297 203.367 206.93 197.055C 207.562 190.731 211.348 169.891 214.508 168.625C 217.664 167.367 223.348 161.684 227.141 159.785C 230.93 157.891 239.77 154.102 246.719 152.203C 253.664 150.313 256.34 145.848 266.727 140.696C 270.59 138.153 269.508 137.348 272.234 137.895C 272.383 137.922 273.844 138.438 275.281 138.66C 276.5 138.852 278.266 138.988 278.613 138.297C 278.906 137.86 278.188 137.07 277.371 136.586C 276.887 136.301 274.371 135.387 275.266 134.793C 276.121 134.227 278.684 134.051 279.16 133.785C 280.16 133.223 282.262 135.621 282.746 135.653C 283.309 135.688 283.57 138.707 284.898 138.555C 286.469 138.379 285.859 138.863 285.859 136.899C 285.859 135.098 284.391 133.496 283.902 132.934C 283.801 132.824 283.473 132.875 283.473 132.875C 283.473 132.875 282.641 131.063 279.402 130.535C 278.848 130.446 278.18 130.117 277.5 130.117C 273.934 130.117 270.223 132.328 267.969 133.145C 264.641 134.348 262.25 135.039 259.996 135.793C 256.207 137.055 248.625 135.793 239.781 138.317C 230.941 140.844 226.523 146.531 222.73 146.531C 218.941 146.531 209.832 147.293 206.672 148.555C 203.52 149.817 199.797 151.656 198.199 151.992C 196.602 152.32 195.719 149.684 195.719 149.684C 195.719 149.684 198.766 145.746 199.301 144.231C 200.281 141.449 200.684 138.41 200.684 136.477C 200.684 132.125 199.414 120.992 189.105 120.653L 189.105 125.696C 189.156 125.696 189.207 125.692 189.254 125.692C 194.941 125.692 194.941 135.653 194.941 135.653C 194.941 135.653 196.594 148.895 189.102 149.168L 189.102 152.442C 189.16 152.442 189.223 152.434 189.285 152.442C 191.207 152.625 191.781 153.598 191.781 153.598C 191.781 153.598 190.824 156.098 190.633 157.641C 190.441 159.176 192.539 163.227 193.309 163.227C 194.078 163.227 199.102 161.879 202.184 159.758C 205.262 157.645 206.801 153.793 212 153.41C 217.199 153.024 217.98 157.324 217.98 157.324C 216.438 158.285 216.043 157.832 213.348 157.832C 210.652 157.832 209.691 162.262 206.027 168.422C 202.375 174.582 199.871 178.051 200.254 180.168C 200.637 182.285 202.371 182.664 202.754 184.977C 203.137 187.289 200.449 187.289 201.219 198.07C 201.988 208.856 204.008 211.863 203.234 214.75C 202.469 217.641 198.656 219.543 202.605 223.973C 205.812 227.578 204.684 235.43 205.258 241.785C 205.832 248.137 207.84 256.629 207.84 259.903C 207.84 263.176 206.023 286.653 206.41 291.086C 206.793 295.512 207.375 305.231 204.871 310.235C 202.371 315.242 201.988 329.406 201.988 331.711C 201.988 334.031 202.754 336.336 203.523 337.688C 204.293 339.031 205.449 338.84 205.258 339.996C 205.066 341.149 203.719 341.149 201.793 341.344C 199.871 341.535 200.254 340.957 198.715 340.957C 197.18 340.957 198.137 339.61 198.715 338.457C 199.293 337.309 198.906 335 199.293 331.91C 199.68 328.828 198.715 310.34 198.137 300.906C 197.566 291.473 201.223 291.281 200.836 287.43C 200.457 283.578 196.156 271.281 195.582 264.543C 195.004 257.805 196.219 255.153 195.637 250.145C 195.062 245.141 195.062 242.18 193.523 239.098C 191.98 236.016 191.402 231.203 190.441 229.664C 190.031 229 189.578 228.481 189.102 228.242L 189.102 246.449L 189.086 246.442zM 219.723 151.387C 219.723 151.387 231.926 148.324 238.602 143.781C 241.094 142.086 248.438 139.664 254.68 139.024C 260.09 138.469 259.828 137.988 259.828 137.988L 263.469 139.094C 248.871 142.524 255.188 143.957 241.281 149.875C 228.848 154.574 219.715 151.387 219.715 151.387"
       id="path2288" />
    <path
       style="stroke:none; fill-rule:evenodd; fill:#469eff"
       d="M 285.238 155.817C 283.625 154.199 284.207 153.836 277.34 153.434C 274.629 153.278 271.117 154.461 267.668 154.758C 262.367 155.215 257.145 154.887 254.695 154.645C 250.648 154.238 249.125 153.992 247.383 154.188C 245.641 154.379 237.309 156.668 233.266 159.496C 229.219 162.324 221.133 165.563 222.344 166.774C 223.559 167.981 240.949 167.176 246.203 166.774C 251.461 166.367 258.922 163.969 265.234 162.52C 271.645 161.051 273.391 158.969 276.629 160.586C 276.773 160.656 281.316 164.246 281.629 163.817C 281.699 163.719 282.238 162.696 281.477 161.582C 280.816 160.621 278.715 158.453 278.785 158.352C 279.445 157.371 280.305 157.309 280.633 157.508C 281.113 157.801 283.59 158.344 284.094 158.66C 285.211 159.371 286.172 162.586 286.711 163.199C 287.734 164.371 288.32 164.528 288.492 163.496C 288.895 161.067 286.867 157.422 285.25 155.809L 285.238 155.817zM 248.23 162.406C 244.188 162.813 231.008 163.32 235.273 161.93C 236.812 161.426 244.98 157.481 248.617 157.481C 252.258 157.481 261.559 158.696 261.559 158.696C 261.559 158.696 252.273 162 248.23 162.406"
       id="path2290" />
    <path
       style="stroke:none; fill-rule:evenodd; fill:#469eff"
       d="M 212.375 225.692C 212.375 225.692 219.652 236.617 221.676 243.488C 223.699 250.363 226.121 260.477 228.555 265.328C 230.977 270.18 238.258 277.457 240.68 283.125C 243.109 288.781 244.316 306.18 246.75 312.641C 249.176 319.11 257.664 321.137 257.664 322.75C 257.664 324.371 258.066 324.774 255.238 325.992C 252.41 327.199 246.75 332.055 244.723 332.055C 242.703 332.055 239.875 321.137 235.016 313.047C 230.168 304.961 227.336 304.153 224.91 298.895C 222.484 293.633 222.082 287.977 219.652 284.738C 217.227 281.508 213.996 277.461 213.996 277.461L 213.996 266.137C 213.996 266.137 216.422 270.992 219.652 274.629C 222.883 278.27 226.523 279.887 227.336 283.528C 228.145 287.164 228.145 292.418 229.762 294.043C 231.375 295.656 242.699 313.051 242.699 313.051C 242.699 313.051 238.656 295.66 237.043 289.192C 235.426 282.719 229.762 281.102 226.93 276.25C 224.098 271.399 221.676 262.5 219.652 257.242C 217.633 251.988 213.586 243.496 213.586 243.496L 212.375 225.699"
       id="path2292" />
  </g>
</svg>
